<?xml version="1.0" standalone="no"?>
<!DOCTYPE svg PUBLIC "-//W3C//DTD SVG 20010904//EN"
 "http://www.w3.org/TR/2001/REC-SVG-20010904/DTD/svg10.dtd">
<svg version="1.0" xmlns="http://www.w3.org/2000/svg"
 width="1500.000000pt" height="1500.000000pt" viewBox="0 0 1500.000000 1500.000000"
 preserveAspectRatio="xMidYMid meet">
<metadata>
Created by potrace 1.14, written by Peter Selinger 2001-2017
</metadata>
<g transform="translate(0.000000,1500.000000) scale(0.100000,-0.100000)"
fill="#000000" stroke="none">
<path d="M8830 13510 c-238 -40 -423 -101 -644 -211 -231 -116 -288 -158 -507
-378 l-196 -196 -34 45 c-55 73 -198 219 -276 281 -81 65 -245 165 -378 232
-201 101 -378 160 -605 203 -173 33 -445 38 -610 11 -601 -97 -1107 -474
-1371 -1021 -200 -415 -249 -865 -145 -1341 34 -153 109 -371 172 -497 19 -37
34 -69 34 -72 0 -2 -48 17 -107 44 -304 136 -563 197 -879 207 -256 8 -455
-19 -679 -93 -130 -42 -360 -153 -462 -221 -416 -279 -698 -692 -792 -1162
-85 -424 -22 -857 188 -1286 96 -195 212 -371 318 -485 l80 -85 -80 -89 c-211
-236 -420 -661 -486 -991 -65 -328 -50 -652 45 -949 230 -716 885 -1221 1665
-1286 347 -29 766 49 1098 206 52 24 96 42 99 39 3 -2 -14 -46 -37 -96 -82
-176 -145 -374 -182 -573 -27 -143 -37 -447 -20 -596 36 -315 142 -607 309
-855 284 -421 696 -699 1178 -796 154 -30 435 -37 599 -15 352 49 742 209
1035 426 64 48 260 242 313 310 l27 35 32 -40 c58 -72 202 -216 276 -277 193
-159 548 -335 810 -403 171 -44 262 -57 452 -62 377 -11 674 66 1005 261 98
57 515 468 591 582 112 169 221 435 264 644 58 284 52 614 -14 905 -37 160
-108 361 -177 498 -16 31 -25 57 -20 57 4 0 51 -20 102 -44 115 -55 291 -116
432 -150 323 -80 683 -80 1000 0 202 50 473 172 607 273 36 27 162 147 280
268 173 175 226 235 268 305 108 178 181 368 228 593 25 117 28 151 28 335 0
218 -11 311 -59 501 -81 317 -284 705 -480 917 l-77 83 48 52 c91 97 142 162
205 262 180 287 293 575 346 880 21 124 24 442 4 560 -43 268 -139 520 -275
723 -27 41 -133 155 -273 293 -191 189 -244 235 -323 284 -213 131 -462 219
-735 261 -143 22 -429 22 -578 0 -212 -31 -463 -105 -646 -192 -51 -24 -97
-44 -102 -44 -4 0 12 42 36 93 250 533 284 1137 94 1647 -47 123 -143 310
-204 395 -60 83 -477 495 -545 538 -205 129 -464 226 -705 262 -139 21 -428
19 -565 -5z"/>
</g>
</svg>
